<svg width="400" height="500" viewBox="0 0 400 500" fill="none" xmlns="http://www.w3.org/2000/svg">
<path d="M400 0H0V500H400V0Z" fill="#EEEEEE"/>
<path d="M198.92 305.28C179.28 305.28 163.36 321.18 163.36 340.8C163.36 360.42 179.28 376.32 198.92 376.32C218.56 376.32 234.48 360.42 234.48 340.8C234.48 321.18 218.56 305.28 198.92 305.28Z" fill="white"/>
<path d="M256 154.83L234.57 219.32C233.56 222.36 230.67 224.38 227.47 224.3L167.95 222.74L173.48 238.47C181.63 236.45 190.14 235.38 198.91 235.38V253.65C192.27 253.65 185.79 254.4 179.57 255.82L208.27 337.54C210.06 342.68 207.33 348.29 202.19 350.11C201.1 350.47 200.01 350.65 198.92 350.65C194.84 350.65 191.01 348.1 189.56 344.03L160.97 262.35C138.97 273 122.08 292.65 115.14 316.48H96.17C103.71 284.67 125.74 258.39 154.89 244.98L147.53 223.93L38.54 355.25C34.11 360.58 27.54 363.67 20.62 363.67H0V332.19H3.51001C9.26001 332.19 14.71 329.62 18.37 325.17L133.84 184.83L103.54 98.2402H115.7C120.81 98.2402 125.36 101.47 127.05 106.28L134.74 128.18L250.16 145.33C254.63 146 257.42 150.54 256 154.83Z" fill="#FF1900"/>
<path d="M65.7899 117.95C60.3299 117.95 55.8799 113.54 55.8799 108.12C55.8799 102.69 60.3199 98.25 65.7899 98.25H104.15L110.44 117.99L65.7899 117.95Z" fill="black"/>
<path d="M93.86 330.28C94.33 325.58 95.1 320.98 96.17 316.49H115.14C113.69 321.45 112.68 326.6 112.14 331.88C111.85 334.82 111.69 337.79 111.69 340.81C111.69 347.9 112.54 354.81 114.17 361.42C123.44 399.56 157.92 427.95 198.91 427.95C247.01 427.95 286.14 388.86 286.14 340.81C286.14 292.75 247.01 253.67 198.91 253.67V235.39C257.14 235.39 304.51 282.68 304.51 340.81C304.51 398.93 257.14 446.22 198.91 446.22C147.77 446.22 105.01 409.73 95.37 361.46C94.03 354.78 93.3301 347.87 93.3301 340.81C93.3301 337.25 93.51 333.75 93.86 330.28Z" fill="black"/>
</svg>
